<svg width="16" height="16" viewBox="0 0 16 16" fill="none" xmlns="http://www.w3.org/2000/svg">
<rect width="16" height="16" rx="5" fill="#EF8938"/>
<g clip-path="url(#clip0_4184_5242)">
<path d="M4.4375 7.8125C4.48723 7.8125 4.53492 7.79275 4.57008 7.75758C4.60525 7.72242 4.625 7.67473 4.625 7.625V7.0625C4.625 7.01277 4.60525 6.96508 4.57008 6.92992C4.53492 6.89475 4.48723 6.875 4.4375 6.875C4.38777 6.875 4.34008 6.89475 4.30492 6.92992C4.26975 6.96508 4.25 7.01277 4.25 7.0625V7.625C4.25 7.67473 4.26975 7.72242 4.30492 7.75758C4.34008 7.79275 4.38777 7.8125 4.4375 7.8125Z" fill="black"/>
<path d="M6.125 2.75C6.17473 2.75 6.22242 2.73025 6.25758 2.69508C6.29275 2.65992 6.3125 2.61223 6.3125 2.5625V2.1875C6.3125 2.13777 6.29275 2.09008 6.25758 2.05492C6.22242 2.01975 6.17473 2 6.125 2C6.07527 2 6.02758 2.01975 5.99242 2.05492C5.95725 2.09008 5.9375 2.13777 5.9375 2.1875V2.5625C5.9375 2.61223 5.95725 2.65992 5.99242 2.69508C6.02758 2.73025 6.07527 2.75 6.125 2.75Z" fill="black"/>
<path d="M8.5625 3.3125C8.61223 3.3125 8.65992 3.29275 8.69508 3.25758C8.73025 3.22242 8.75 3.17473 8.75 3.125V2.75C8.75 2.70027 8.73025 2.65258 8.69508 2.61742C8.65992 2.58225 8.61223 2.5625 8.5625 2.5625C8.51277 2.5625 8.46508 2.58225 8.42992 2.61742C8.39475 2.65258 8.375 2.70027 8.375 2.75V3.125C8.375 3.17473 8.39475 3.22242 8.42992 3.25758C8.46508 3.29275 8.51277 3.3125 8.5625 3.3125Z" fill="black"/>
<path d="M4.25 9.125C4.25 9.17473 4.26975 9.22242 4.30492 9.25758C4.34008 9.29275 4.38777 9.3125 4.4375 9.3125C4.48723 9.3125 4.53492 9.29275 4.57008 9.25758C4.60525 9.22242 4.625 9.17473 4.625 9.125V8.5625C4.625 8.51277 4.60525 8.46508 4.57008 8.42992C4.53492 8.39475 4.48723 8.375 4.4375 8.375C4.38777 8.375 4.34008 8.39475 4.30492 8.42992C4.26975 8.46508 4.25 8.51277 4.25 8.5625V9.125Z" fill="black"/>
<path d="M13.2451 12.0958C13.2462 12.0742 13.25 12.053 13.25 12.0312C13.25 11.5261 12.9522 11.0613 12.4117 10.7221C12.3696 10.6972 12.3194 10.6897 12.2719 10.7012C12.2244 10.7128 12.1832 10.7424 12.1572 10.7838C12.1313 10.8253 12.1225 10.8752 12.1328 10.923C12.1432 10.9709 12.1718 11.0127 12.2126 11.0398C12.4625 11.1842 12.664 11.3995 12.7916 11.6585C12.3836 11.5031 11.7661 11.5355 10.9509 11.7566C9.63106 12.1141 9.04156 11.4459 8.85819 11.1633C9.37237 10.7954 9.99303 10.6063 10.625 10.625C10.9252 10.624 11.2242 10.6629 11.5141 10.7409C11.5621 10.754 11.6133 10.7475 11.6565 10.7228C11.6997 10.6981 11.7314 10.6573 11.7445 10.6093C11.7576 10.5614 11.7511 10.5101 11.7264 10.4669C11.7017 10.4237 11.6609 10.3921 11.6129 10.379C11.3514 10.3089 11.083 10.2677 10.8125 10.256C10.8758 10.0666 10.9229 9.87214 10.9533 9.67475L11.5372 9.62169C11.9591 9.58557 12.354 9.39874 12.6495 9.09537C12.9449 8.792 13.1213 8.39238 13.1463 7.96962L13.25 6.70269C13.2521 6.67682 13.2488 6.65079 13.2403 6.62626C13.2319 6.60173 13.2184 6.57923 13.2008 6.56017C13.1831 6.54112 13.1617 6.52593 13.1379 6.51558C13.1141 6.50522 13.0885 6.49991 13.0625 6.5H11V5.9375C11 5.88777 10.9802 5.84008 10.9451 5.80492C10.9099 5.76975 10.8622 5.75 10.8125 5.75H7.625V5.5625C7.625 5.46304 7.66451 5.36766 7.73483 5.29734C7.80516 5.22701 7.90054 5.1875 8 5.1875C8.19891 5.1875 8.38968 5.10848 8.53033 4.96783C8.67098 4.82718 8.75 4.63641 8.75 4.4375V3.875C8.75 3.82527 8.73025 3.77758 8.69508 3.74242C8.65992 3.70725 8.61223 3.6875 8.5625 3.6875C8.51277 3.6875 8.46508 3.70725 8.42992 3.74242C8.39475 3.77758 8.375 3.82527 8.375 3.875V4.4375C8.375 4.53696 8.33549 4.63234 8.26516 4.70266C8.19484 4.77299 8.09946 4.8125 8 4.8125C7.80109 4.8125 7.61032 4.89152 7.46967 5.03217C7.32902 5.17282 7.25 5.36359 7.25 5.5625V5.75H5.1875V5C5.1875 4.90054 5.22701 4.80516 5.29733 4.73484C5.36766 4.66451 5.46304 4.625 5.5625 4.625C5.76141 4.625 5.95218 4.54598 6.09283 4.40533C6.23348 4.26468 6.3125 4.07391 6.3125 3.875V3.3125C6.3125 3.26277 6.29275 3.21508 6.25758 3.17992C6.22242 3.14475 6.17473 3.125 6.125 3.125C6.07527 3.125 6.02758 3.14475 5.99242 3.17992C5.95725 3.21508 5.9375 3.26277 5.9375 3.3125V3.875C5.9375 3.97446 5.89799 4.06984 5.82766 4.14016C5.75734 4.21049 5.66196 4.25 5.5625 4.25C5.36359 4.25 5.17282 4.32902 5.03217 4.46967C4.89152 4.61032 4.8125 4.80109 4.8125 5V5.75H2.9375C2.88777 5.75 2.84008 5.76975 2.80492 5.80492C2.76975 5.84008 2.75 5.88777 2.75 5.9375V6.6875C2.75 6.73723 2.76975 6.78492 2.80492 6.82008C2.84008 6.85525 2.88777 6.875 2.9375 6.875C2.98723 6.875 3.03492 6.85525 3.07008 6.82008C3.10525 6.78492 3.125 6.73723 3.125 6.6875V6.125H10.625V9.125C10.6247 9.51211 10.5535 9.89588 10.4148 10.2573C9.72439 10.2753 9.05995 10.5243 8.52781 10.9646C8.5057 10.9774 8.48654 10.9947 8.47156 11.0154C8.32824 11.1439 8.21254 11.3003 8.13148 11.4749C8.05042 11.6495 8.00569 11.8388 8 12.0312C8.00078 12.1061 8.00843 12.1807 8.02287 12.2542C7.82995 12.2915 7.634 12.311 7.4375 12.3125H6.3125C5.46741 12.3116 4.65721 11.9754 4.05964 11.3779C3.46207 10.7803 3.12594 9.97009 3.125 9.125V7.4375C3.125 7.38777 3.10525 7.34008 3.07008 7.30492C3.03492 7.26975 2.98723 7.25 2.9375 7.25C2.88777 7.25 2.84008 7.26975 2.80492 7.30492C2.76975 7.34008 2.75 7.38777 2.75 7.4375V9.125C2.75109 10.0695 3.12678 10.975 3.79464 11.6429C4.4625 12.3107 5.368 12.6864 6.3125 12.6875H7.4375C7.67613 12.6871 7.91412 12.6628 8.14794 12.6151C8.34798 12.9717 8.65218 13.2586 9.01981 13.4375H2.5625C2.51277 13.4375 2.46508 13.4573 2.42992 13.4924C2.39475 13.5276 2.375 13.5753 2.375 13.625C2.375 13.6747 2.39475 13.7224 2.42992 13.7576C2.46508 13.7927 2.51277 13.8125 2.5625 13.8125H10.4375C10.4468 13.8114 10.4559 13.8096 10.4649 13.8071C10.5181 13.8093 10.571 13.8125 10.625 13.8125C11.9994 13.8125 13.1283 13.0918 13.2391 12.1783C13.2474 12.1516 13.2495 12.1233 13.2451 12.0958ZM12.8592 6.875L12.7726 7.94375C12.7533 8.27753 12.6144 8.59318 12.3813 8.83288C12.1482 9.07258 11.8366 9.22029 11.5034 9.24894L10.9917 9.29544C10.9944 9.23919 11 9.18294 11 9.125V6.875H12.8592ZM10.625 13.4375C9.38431 13.4375 8.375 12.8068 8.375 12.0312C8.37921 11.8127 8.45576 11.6017 8.59269 11.4312C8.87581 11.8164 9.60837 12.5086 11.0489 12.1181C12.3146 11.7748 12.7721 12.0029 12.8658 12.1422C12.7745 12.866 11.8062 13.4375 10.625 13.4375Z" fill="black"/>
</g>
<defs>
<clipPath id="clip0_4184_5242">
<rect width="12" height="12" fill="white" transform="translate(2 2)"/>
</clipPath>
</defs>
</svg>
