<?xml version="1.0" ?><svg id="Outline" style="enable-background:new 0 0 64 64;" version="1.1" viewBox="0 0 64 64" xml:space="preserve" xmlns="http://www.w3.org/2000/svg" xmlns:xlink="http://www.w3.org/1999/xlink"><title/><desc/><g><path d="M31.293,35.707C31.488,35.902,31.744,36,32,36s0.512-0.098,0.707-0.293l2.793-2.793l2.793,2.793   C38.488,35.902,38.744,36,39,36s0.512-0.098,0.707-0.293l8-8c2.285-2.285,2.556-5.831,0.817-8.417   c2.358-4.24,1.631-9.549-1.817-12.997C42.685,2.271,36.278,2.057,32,5.645c-4.278-3.589-10.686-3.374-14.707,0.648   c-4.25,4.25-4.25,11.164,0,15.414L31.293,35.707z M46.293,26.293L39,33.586l-7.293-7.293c-1.815-1.815-1.815-4.771,0-6.586   c0.908-0.908,2.101-1.361,3.293-1.361s2.385,0.453,3.293,1.361c0.391,0.391,1.023,0.391,1.414,0c1.815-1.816,4.771-1.816,6.586,0   C48.108,21.522,48.108,24.478,46.293,26.293z M18.707,7.707c3.47-3.471,9.116-3.471,12.586,0c0.391,0.391,1.023,0.391,1.414,0   c3.47-3.471,9.116-3.469,12.586,0c2.666,2.666,3.343,6.695,1.773,10.054c-2.365-1.836-5.681-1.879-8.066-0.082   c-2.605-1.962-6.334-1.757-8.707,0.614c-2.596,2.596-2.596,6.818,0,9.414l3.793,3.793L32,33.586L18.707,20.293   C15.237,16.823,15.237,11.177,18.707,7.707z"/><path d="M54,40c-0.684,0-1.351,0.094-2,0.262V39c0-0.553-0.448-1-1-1H13c-0.552,0-1,0.447-1,1v1.262C11.351,40.094,10.684,40,10,40   c-4.411,0-8,3.589-8,8v1c0,6.065,4.935,11,11,11h1.284c1.246,1.238,2.898,2,4.716,2h12c0.329,0,0.658-0.04,0.983-0.089   C32.316,61.964,32.654,62,33,62h12c1.818,0,3.47-0.762,4.716-2H51c6.065,0,11-4.935,11-11v-1C62,43.589,58.411,40,54,40z M12,53.65   C9.657,52.815,8,50.565,8,48c0-1.103,0.897-2,2-2s2,0.897,2,2V53.65z M4,49v-1c0-3.309,2.691-6,6-6c0.691,0,1.36,0.117,2,0.344   v2.213C11.409,44.212,10.732,44,10,44c-2.206,0-4,1.794-4,4c0,3.702,2.584,6.921,6.121,7.777c0.133,0.787,0.374,1.533,0.713,2.215   C7.948,57.902,4,53.907,4,49z M19,60c-2.26,0-4.173-1.69-4.79-4H24v-2H14V40h12v14.4c0,2.217,0.884,4.209,2.284,5.6H19z M45,60H33   c-2.757,0-5-2.512-5-5.6V40h22v14H34v2h15.79C49.173,58.31,47.26,60,45,60z M52,48c0-1.103,0.897-2,2-2s2,0.897,2,2   c0,2.607-1.673,4.824-4,5.65V48z M60,49c0,4.907-3.948,8.902-8.833,8.992c0.34-0.685,0.581-1.434,0.714-2.224   C55.386,54.918,58,51.763,58,48c0-2.206-1.794-4-4-4c-0.732,0-1.409,0.212-2,0.556v-2.213C52.64,42.117,53.309,42,54,42   c3.309,0,6,2.691,6,6V49z"/><rect height="2" width="2" x="30" y="54"/></g></svg>